<svg id="Layer_1" data-name="Layer 1" xmlns="http://www.w3.org/2000/svg" viewBox="0 0 665.6 139.02"><defs><style>.cls-1{fill:#fff;}.cls-2{fill:#fbb03b;}</style></defs><title>logo</title><circle cx="69.51" cy="69.51" r="69.51"/><path class="cls-1" d="M129.75,516.83c-2.8.17-2.55-2.55-1.32-5.92,1.57-6.5-3.62-12-10.12-12-5.59.66-6.82,7.24-7,7.82-1,7.07-.82,14.14-1,22,3-4.36,7.56-8.47,13.9-6.74.82.24,3.53,2.3,1.48,3-1.32.33-6.58-1.73-12.09,8.39-1.32,2.63-3.13,8.55-2.39,39.07,0,2.55-.58,4.94-3.29,5.51a6.54,6.54,0,0,1-6.42-3.12c-3-4.36-3-11.77-3-12.59V520.78c.16-5.43,1.56-23.94,15.71-24.76,7.65-.33,15.88,2.3,18.76,10.7C133.78,509.18,134.11,516.83,129.75,516.83Z" transform="translate(-67.2 -473.48)"/><path class="cls-1" d="M123.21,580.67c22.75,0,25.17.08,27.68,0,0-9.46-1.21-39.49-.43-55.77.09-1.24.69-9.13,2.85-14.07,1.3-2.39,2.68-3.78,5.45-4.11,2.6.41,3.72,5.43,4,7.48,1.73,20.16,1.12,56.93,1.38,67h9.17c1.47.25,1.39,1.73.26,2.22-4,2.14-7.26,2-11.42,2-2,2.47-7.87,5.26-10.37,2.22a4.42,4.42,0,0,1-.52-2.3c-6.84.24-13.67.57-20.5.57-5,0-10.81.66-10.73-1.48C120.19,583.14,121.74,580.67,123.21,580.67Z" transform="translate(-67.2 -473.48)"/><path class="cls-2" d="M134.59,559.71c4.59-.89,11.62,7.33,6.59,10.95-4.74,3.56-8.37.89-9-3.47C131.85,565.26,131.48,559.41,134.59,559.71Zm5.85-32.8c1.85,3.33,3.62,5.92,1.25,9a4.43,4.43,0,0,1-4.73,1.7c-5.93-1.55-5.48-7.48-4.08-12.21C134.81,522.4,139.25,524.84,140.44,526.91Z" transform="translate(-67.2 -473.48)"/><path d="M245.43,532.87h-6.74V522.66h6.74v-8.8q0-9.51,5.27-14a19.78,19.78,0,0,1,12.91-4.18h8.67v12.66h-7.64q-6-.19-5.78,5.52v8.8h13.42v10.21H258.86v56.46H245.43Z" transform="translate(-67.2 -473.48)"/><path d="M286.44,495.68h13.42v76.44q0,4.56,5,4.56h4.63v12.65h-6q-7.33,0-12.08-3.66-5-3.72-5-12.52Z" transform="translate(-67.2 -473.48)"/><path d="M323.66,555.93q0-10.53,1.73-16.18a23.41,23.41,0,0,1,5.52-9.32,25.33,25.33,0,0,1,7.71-6q4.89-2.51,12.53-2.64,7.89.13,12.78,2.64a24.14,24.14,0,0,1,7.45,6,21,21,0,0,1,5.65,9.32q1.61,5.64,1.61,16.18T377,572a22.91,22.91,0,0,1-5.65,9.57,20.75,20.75,0,0,1-3.15,2.89,14.62,14.62,0,0,1-4.3,2.76Q359,590,351.15,590.1q-7.65-.12-12.53-2.89a25.27,25.27,0,0,1-7.71-5.65,25.75,25.75,0,0,1-5.52-9.57Q323.65,566.47,323.66,555.93Zm41.55.13a59.92,59.92,0,0,0-.64-10.41,12.32,12.32,0,0,0-2.63-5.52,9.78,9.78,0,0,0-4.37-3.53,14.45,14.45,0,0,0-6.42-1.35,14.72,14.72,0,0,0-6.3,1.35,11.77,11.77,0,0,0-4.49,3.53,15.49,15.49,0,0,0-2.51,5.52,49.66,49.66,0,0,0-.77,10.28,48.09,48.09,0,0,0,.77,10.15,16.7,16.7,0,0,0,2.51,5.78,16,16,0,0,0,4.49,3.4,14.07,14.07,0,0,0,6.3,1.42,13.8,13.8,0,0,0,6.42-1.42,12.52,12.52,0,0,0,4.37-3.4,13.24,13.24,0,0,0,2.63-5.78A56,56,0,0,0,365.21,556.06Z" transform="translate(-67.2 -473.48)"/><path d="M434.29,583.42H434a11.14,11.14,0,0,1-5.78,5q-3.86,1.68-10.66,1.67-11.18-.12-17.22-5.91A18.47,18.47,0,0,1,394,569.74a18.92,18.92,0,0,1,5.52-13.94q5.52-5.64,16.19-5.78h18.56v-7q.12-8.81-13.68-8.54a24.17,24.17,0,0,0-7.9,1,9.61,9.61,0,0,0-4.76,4.11l-10.53-8q7.63-10,22.55-9.77,12.58-.12,20.1,4.76t7.64,17.21v45.54H434.29Zm0-22.35H418.23q-11.69.25-11.56,8a7.13,7.13,0,0,0,3,5.78c1.93,1.76,5.11,2.63,9.57,2.63q8.42.13,11.88-2,3.15-2.12,3.15-9.63Z" transform="translate(-67.2 -473.48)"/><path d="M472.4,502.36h13.43v20.3h9.76v10.21h-9.76v38.86c-.09,3.39,1.5,5,4.75,4.95h5v12.65h-7A15.87,15.87,0,0,1,477,585q-4.62-4.17-4.63-12.07v-40h-6.68V522.66h6.68Z" transform="translate(-67.2 -473.48)"/><path d="M515.14,546h13.43v13.43H515.14Zm0,29.87h13.43v13.42H515.14Z" transform="translate(-67.2 -473.48)"/><path d="M552.88,495.68H566.3v76.44q0,4.56,5,4.56h4.62v12.65h-6q-7.32,0-12.08-3.66-5-3.72-5-12.52Z" transform="translate(-67.2 -473.48)"/><path d="M603.51,561.07q0,8,4.63,12.2,4.3,4.25,11.3,4.24,8.16,0,14.59-6.48l9.7,8.28q-10.23,10.92-24,10.79a34.7,34.7,0,0,1-10.28-1.54,24.59,24.59,0,0,1-4.88-2.25,23.57,23.57,0,0,1-4.69-3,26.44,26.44,0,0,1-6.87-10.4q-2.9-6.42-2.89-16.7,0-9.88,2.51-16.44A28.5,28.5,0,0,1,599,529.21a24,24,0,0,1,8.93-5.65,28.52,28.52,0,0,1,9.63-1.74,27.77,27.77,0,0,1,19.33,7.52q8,7.51,8.16,20.68v11.05ZM631.65,550q-.25-7.77-4.18-11.75a14.8,14.8,0,0,0-19.78,0q-3.8,4-4.18,11.75Z" transform="translate(-67.2 -473.48)"/><path d="M667.84,532.87h-6.75V522.66h6.75v-8.8q0-9.51,5.26-14A19.79,19.79,0,0,1,686,495.68h8.67v12.66H687q-6-.19-5.78,5.52v8.8h13.43v10.21H681.26v56.46H667.84Z" transform="translate(-67.2 -473.48)"/><path d="M709.61,502.36H723v20.3h9.76v10.21H723v38.86c-.09,3.39,1.5,5,4.75,4.95h5v12.65h-7A15.85,15.85,0,0,1,714.24,585q-4.62-4.17-4.63-12.07v-40h-6.68V522.66h6.68Z" transform="translate(-67.2 -473.48)"/></svg>